<svg xmlns="http://www.w3.org/2000/svg" xmlns:xlink="http://www.w3.org/1999/xlink" width="4000" zoomAndPan="magnify" viewBox="0 0 3000 2999.999989" height="4000" preserveAspectRatio="xMidYMid meet" version="1.0"><path fill="#9333ea" d="M 139.898438 0 L 1796.632812 0 L 1796.632812 264.707031 L 272.253906 264.707031 L 272.253906 2735.292969 L 711.105469 2735.292969 L 711.105469 2044.503906 L 2024.1875 2044.503906 L 2024.1875 1678.792969 L 711.105469 1678.792969 L 711.105469 707.042969 L 2024.1875 707.042969 L 2024.1875 0 L 2992.453125 0 L 2992.453125 3000 L 1203.367188 3000 L 1203.367188 2735.292969 L 2727.746094 2735.292969 L 2727.746094 264.707031 L 2288.894531 264.707031 L 2288.894531 971.75 L 975.8125 971.75 L 975.8125 1414.085938 L 2288.894531 1414.085938 L 2288.894531 2309.210938 L 975.8125 2309.210938 L 975.8125 3000 L 7.546875 3000 L 7.546875 0 Z M 139.898438 0 " fill-opacity="1" fill-rule="nonzero"/></svg>